/* XPM */
static char *result[] = {
/* columns rows colors chars-per-pixel */
"48 48 84 1 ",
"  c #21B9D4",
". c #22B9D4",
"X c #23B9D4",
"o c #24B9D4",
"O c #25B9D4",
"+ c #24BAD4",
"@ c #25BAD4",
"# c #26BAD4",
"$ c #27BAD4",
"% c #28BAD4",
"& c #2ABAD4",
"* c #2BBBD4",
"= c #2CBBD4",
"- c #2DBBD4",
"; c #2EBBD4",
": c #30BBD4",
"> c #31BCD5",
", c #32BCD4",
"< c #32BCD5",
"1 c #34BCD5",
"2 c #35BDD5",
"3 c #37BDD5",
"4 c #38BDD4",
"5 c #39BDD5",
"6 c #3ABDD5",
"7 c #3BBDD5",
"8 c #3BBED5",
"9 c #3CBED5",
"0 c #3DBED5",
"q c #3FBFD5",
"w c #40BFD5",
"e c #42BFD5",
"r c #43BFD5",
"t c #44BFD5",
"y c #45C0D5",
"u c #46C0D5",
"i c #47C0D5",
"p c #48C0D5",
"a c #4AC0D5",
"s c #4BC0D5",
"d c #4EC0D5",
"f c #53C3D6",
"g c #57C2D6",
"h c #57C3D6",
"j c #58C2D6",
"k c #5CC3D6",
"l c #5EC3D6",
"z c #5FC3D6",
"x c #60C3D6",
"c c #61C3D6",
"v c #62C3D6",
"b c #62C4D6",
"n c #63C4D6",
"m c #64C4D6",
"M c #65C4D6",
"N c #66C4D6",
"B c #67C4D6",
"V c #68C5D6",
"C c #69C5D6",
"Z c #6BC7D7",
"A c #71C7D7",
"S c #72C7D7",
"D c #75C8D7",
"F c #76C8D7",
"G c #7AC9D7",
"H c #7DCAD7",
"J c #80CBD8",
"K c #82CBD8",
"L c #83CBD8",
"P c #82CCD8",
"I c #83CCD8",
"U c #84CCD8",
"Y c #85CCD8",
"T c #86CDD8",
"R c #87CDD8",
"E c #88CDD8",
"W c #89CDD8",
"Q c #8ACDD8",
"! c #8ACED8",
"~ c #8BCED8",
"^ c #8CCED8",
"/ c #8DCED8",
"( c #8ECED8",
") c None",
/* pixels */
"))))))))))))))))))))))))))))))))))))))))))))))))",
"))))))))))))))))))))))))))))))))))))))))))))))))",
"))))))))))))))))))))))))))))))))))))))))))))))))",
"))))))))))))))))))))))))))))))))))))))))))))))))",
"))))))))))))))))))))))))))))))))))))))))))))))))",
")))%%%%%%%%%%%%$&kNmmmmmmmmmmmmmKWEEEEEEEEEEE)))",
"))%%%%%%%%%%%%%@4MmmmmmmmmmmmmnVREEEEEEEEEEEEE))",
"))%%%%%%%%%%%%%oaVmmmmmmmmmmmmnCEEEEEEEEEEEEEE))",
")))%%%%%%%%%%%%%jNmmmmmmmmmmmmnCREEEEEEEEEEEE)))",
")))%%%%%))))))))))))))))))))))))))))))))EEEEE)))",
"))))%%%%))))))))))))))))))))))))))))))))EEEE))))",
"))))%%%%))))))))))))))))))))))))))))))))EEEE))))",
")))))%%%)))))))))))))))))))))))))))))))EEEE)))))",
"))))))%%%))))))))))))))))))))))))))))))EEE))))))",
"))))))%%%%))))))))))))))))))))))))))))EEEE))))))",
")))))))%%%))))))))))))))))))))))))))))EEE)))))))",
")))))))%%%%))))))))))))))))))))))))))EWEE)))))))",
"))))))))%%%)))))))))))))))))))))))))mAUQ))))))))",
"))))))))X%%%))))))))))))))))))))))))mbM)))))))))",
")))))))))X%%X))))))))))))))))))))))xvvc)))))))))",
")))))))))fo$+Z(EEEEEEEEEEEEEEEEEEQPFFDG)))))))))",
")hYIIUUYEE9OowW~~~^^^^////^^^^~~QQQ~!QETYUUIIYh)",
")$;:><1238,$%#8erttyyyuiiuyyyttewq00085321<>:;$)",
"))))))))))#%%%ooXXXXXXXXXXXXXX. $%%$ o))))))))))",
"))))))))))))))))))))))))))))))))))))))))))))))))",
")))))))))))))%%%))))))))))))))))MMM)))))))))))))",
")))))))))))))%%%%))))))))))))))mmmm)))))))))))))",
"))))))))))))))%%%))))))))))))))NMm))))))))))))))",
"))))))))))))))%%%%))))))))))))sgzM))))))))))))))",
")))))))))))))))%%%)))))))))))Oo$*)))))))))))))))",
")))))))))))))))%%%%))))))))))%%%$)))))))))))))))",
"))))))))))))))))%%%%))))))))%%%%))))))))))))))))",
")))))))))))))))))O@$))))))))$O@)))))))))))))))))",
")))))))))))))))))p6=o))))))o-7d)))))))))))))))))",
"))))))))))))))))))Bld))))))dzC))))))))))))))))))",
"))))))))))))))))))JGSV))))VDHY))))))))))))))))))",
")))))))))))))))))))QQYL))TTQQ)))))))))))))))))))",
")))))))))))))))))))EEWWEEWWEE)))))))))))))))))))",
"))))))))))))))))))))EEEEEEEE))))))))))))))))))))",
")))))))))))))))))))))EEEEEE)))))))))))))))))))))",
")))))))))))))))))))))EEEEEE)))))))))))))))))))))",
"))))))))))))))))))))))EEEE))))))))))))))))))))))",
"))))))))))))))))))))))EEEE))))))))))))))))))))))",
")))))))))))))))))))))))EE)))))))))))))))))))))))",
"))))))))))))))))))))))))))))))))))))))))))))))))",
"))))))))))))))))))))))))))))))))))))))))))))))))",
"))))))))))))))))))))))))))))))))))))))))))))))))",
"))))))))))))))))))))))))))))))))))))))))))))))))"
};
