/* XPM */
static char *result[] = {
/* columns rows colors chars-per-pixel */
"48 48 105 2 ",
"   c #564849",
".  c #594F50",
"X  c #5A5354",
"o  c #5A5658",
"O  c #5B5B5D",
"+  c #575E61",
"@  c #5B5E61",
"#  c #566266",
"$  c #5D6264",
"%  c #55666B",
"&  c #5A676A",
"*  c #53686D",
"=  c #5A696D",
"-  c #566C71",
";  c #4D7077",
":  c #4F767D",
">  c #637A7E",
",  c #457F88",
"<  c #527C83",
"1  c #597E84",
"2  c #647E82",
"3  c #2D9CAC",
"4  c #3399A7",
"5  c #3F9AA6",
"6  c #309AAA",
"7  c #3C9FAD",
"8  c #39A1AF",
"9  c #26A5B6",
"0  c #2CA4B5",
"q  c #2BA8B9",
"w  c #37A5B4",
"e  c #38A3B2",
"r  c #34A8B7",
"t  c #34AAB9",
"y  c #4A858E",
"u  c #478A94",
"i  c #498A93",
"p  c #438F99",
"a  c #488E99",
"s  c #598E96",
"d  c #45939E",
"f  c #5A949C",
"g  c #648084",
"h  c #66898E",
"j  c #699399",
"k  c #4396A1",
"l  c #4499A4",
"z  c #57A0AA",
"x  c #59A4AE",
"c  c #5AB9BF",
"v  c #6DA8AF",
"b  c #1AA7CC",
"n  c #18B9CE",
"m  c #1BBED3",
"M  c #1DBDD9",
"N  c #2CAFC0",
"B  c #26B4C7",
"V  c #2EB0C2",
"C  c #29B6C9",
"Z  c #24BACE",
"A  c #30B0C1",
"S  c #21BFD4",
"D  c #37BDD3",
"F  c #44B5CD",
"G  c #5DB7C2",
"H  c #5DB8C3",
"J  c #62B7C1",
"K  c #62BEC7",
"L  c #72B8C0",
"P  c #78BFC6",
"I  c #1EC1D6",
"U  c #1CC4DA",
"Y  c #21C1D5",
"T  c #2AC2D5",
"R  c #23C3D8",
"E  c #2DC4D8",
"W  c #32C4D6",
"Q  c #3DC5D6",
"!  c #35C7DB",
"~  c #35C8DC",
"^  c #39C8DB",
"/  c #47C3CF",
"(  c #45C5D5",
")  c #4BC6D5",
"_  c #4ECCDC",
"`  c #56C6D5",
"'  c #59C7D5",
"]  c #56C8D7",
"[  c #5DC9D6",
"{  c #54CCDB",
"}  c #5ACDDB",
"|  c #6AC7CE",
" . c #75C5CD",
".. c #79C5CD",
"X. c #62C9D4",
"o. c #6DCCD6",
"O. c #63CEDB",
"+. c #76CDD6",
"@. c #7ACDD6",
"#. c #75CFD9",
"$. c #7ACFD8",
"%. c #68D2DD",
"&. c #75D2DB",
"*. c #79D2DB",
"=. c None",
/* pixels */
"=.=.=.=.=.=.=.=.=.=.=.=.=.=.=.=.=.=.=.=.=.=.=.=.=.=.=.=.=.=.=.=.=.=.=.=.=.=.=.=.=.=.=.=.=.=.=.=.",
"=.=.=.=.=.=.=.=.=.=.=.=.=.=.=.=.=.=.=.=.=.=.=.=.=.=.=.=.=.=.=.=.=.=.=.=.=.=.=.=.=.=.=.=.=.=.=.=.",
"=.=.=.=.=.=.=.=.=.=.=.=.=.=.=.=.=.=.=.=.=.=.=.=.=.=.=.=.=.=.=.=.=.=.=.=.=.=.=.=.=.=.=.=.=.=.=.=.",
"=.=.=.=.=.=.=.=.=.=.=.=.=.=.=.=.=.=.=.=.=.=.=.=.=.=.=.=.=.=.=.=.=.=.=.=.=.=.=.=.=.=.=.=.=.=.=.=.",
"=.=.=.=.=.=.=.=.=.=.=.=.=.=.=.=.=.=.=.=.=.=.=.=.=.=.=.=.=.=.=.=.=.=.=.=.=.=.=.=.=.=.=.=.=.=.=.=.",
"=.=.=.=.=.=.=.=.=.=.=.=.=.=.=.=.=.=.=.=.=.=.=.=.=.=.=.=.=.=.=.=.=.=.=.=.=.=.=.=.=.=.=.=.=.=.=.=.",
"=.=.=.=.=.=.=.=.=.=.=.=.=.=.=.=.=.=.=.=.=.=.=.=.=.=.=.=.=.=.=.=.=.=.=.=.=.=.=.=.=.=.=.=.=.=.=.=.",
"=.=.=.=.=.=.=.=.=.=.=.=.=.=.=.=.=.=.=.=.=.=.=.=.=.=.=.=.=.=.=.=.=.=.=.=.=.=.=.=.=.=.=.=.=.=.=.=.",
"=.=.=.=.=.=.S Y S S S I m S S S Y Y ) ' ` ` ` ] ] ] ] ` ] ` [ +.#.+.+.+.+.+.+.+.+.&.=.=.=.=.=.=.",
"=.=.=.=.=.=.Y S S S S S S S Y S S Z ] ] ] ` ` ] ] ] ] ] ` ` X.@.+.+.+.+.#.+.+.+.+.@.=.=.=.=.=.=.",
"=.=.=.=.=.=.m Y S S Y I Y R Y Y U ^ } } ] { { } ] ] { { { { O.*.&.*.&.*.*.#.+.+.+.#.=.=.=.=.=.=.",
"=.=.=.=.=.=.=.R S Y Z w e e e e y < 1 1 1 1 1 1 1 1 1 1 1 1 1 2 g g g 1 h  .#.@.+.=.=.=.=.=.=.=.",
"=.=.=.=.=.=.=.M Y I r a d d d i X . X . X . X X . X X X X . . X X . . .   j *.@.&.=.=.=.=.=.=.=.",
"=.=.=.=.=.=.=.=.S R N d d d k i X o o X o o X X X o X o o o o o o o o o X v *.+.=.=.=.=.=.=.=.=.",
"=.=.=.=.=.=.=.=.m S Y 7 d k k u o X o o o o o o o o o o o o o o o o o . 2 &.$.&.=.=.=.=.=.=.=.=.",
"=.=.=.=.=.=.=.=.=.Y I C d d k u O o o o o o o o o o o o o X X o o o X o L &.+.=.=.=.=.=.=.=.=.=.",
"=.=.=.=.=.=.=.=.=.m S I e d d d + o o o o o o o o o o o o o o o o o X h &.*.c =.=.=.=.=.=.=.=.=.",
"=.=.=.=.=.=.=.=.=.=.S Y Z k d k % X o o o o o o o o o o o o o o X X O ..&.#.=.=.=.=.=.=.=.=.=.=.",
"=.=.=.=.=.=.=.=.=.=.=.S Y t d k : X o o o o o X o o o o o o o o X X f %.@.=.=.=.=.=.=.=.=.=.=.=.",
"=.=.=.=.=.=.=.=.=.=.=.n I S 5 d i o X X X X X X X o o o X o X X X = ` ] ) =.=.=.=.=.=.=.=.=.=.=.",
"=.=.=.=.=.=.=.=.=.=.=.=.Y Y A d l - O O $ @ $ $ $ $ $ $ + O O O o x } ' =.=.=.=.=.=.=.=.=.=.=.=.",
"=.=.=.=.=.=.*.@.@.@.@.@.o.o.o.+.+..... .....@...@......... .....P &.+.+.@.@.@.$.@.*.=.=.=.=.=.=.",
"=.=.=.=.=.~ ( ( ( ) ) ) ) ) _ { ) { { { { { { { { { { _ { _ { _ _ _ ) ) ) ) ) ( ) ( ! =.=.=.=.=.",
"=.=.=.=.=.=.U m I m m m I 9 6 6 0 B B q 0 0 q 0 0 q 0 0 0 0 3 3 3 6 0 m m m m m m I =.=.=.=.=.=.",
"=.=.=.=.=.=.=.=.=.=.=.=.=.=.o + * a d y o X o o X X X X X X X $ $ + =.=.=.=.=.=.=.=.=.=.=.=.=.=.",
"=.=.=.=.=.=.=.=.=.=.=.=.=.=.=.S S r d k y o X X o o o o o . s [ ' =.=.=.=.=.=.=.=.=.=.=.=.=.=.=.",
"=.=.=.=.=.=.=.=.=.=.=.=.=.=.=.I Y S 5 d l i % X X o o o X & [ } { =.=.=.=.=.=.=.=.=.=.=.=.=.=.=.",
"=.=.=.=.=.=.=.=.=.=.=.=.=.=.=.=.S Y V d d l d : O X X o X z } [ =.=.=.=.=.=.=.=.=.=.=.=.=.=.=.=.",
"=.=.=.=.=.=.=.=.=.=.=.=.=.=.=.=.m S Y 7 d d d k p : # X ; T W W =.=.=.=.=.=.=.=.=.=.=.=.=.=.=.=.",
"=.=.=.=.=.=.=.=.=.=.=.=.=.=.=.=.=.S Y C d d k d k d d i q U Y =.=.=.=.=.=.=.=.=.=.=.=.=.=.=.=.=.",
"=.=.=.=.=.=.=.=.=.=.=.=.=.=.=.=.=.U S Y w d k d d d d w R Y b =.=.=.=.=.=.=.=.=.=.=.=.=.=.=.=.=.",
"=.=.=.=.=.=.=.=.=.=.=.=.=.=.=.=.=.=.S I Z k d d k d k Z I R =.=.=.=.=.=.=.=.=.=.=.=.=.=.=.=.=.=.",
"=.=.=.=.=.=.=.=.=.=.=.=.=.=.=.=.=.=.F Q E t d d d d r E ( ( =.=.=.=.=.=.=.=.=.=.=.=.=.=.=.=.=.=.",
"=.=.=.=.=.=.=.=.=.=.=.=.=.=.=.=.=.=.=.X.[ ) l d d 5 ` [ X.=.=.=.=.=.=.=.=.=.=.=.=.=.=.=.=.=.=.=.",
"=.=.=.=.=.=.=.=.=.=.=.=.=.=.=.=.=.=.=.=.&.#.G d d G #.+.=.=.=.=.=.=.=.=.=.=.=.=.=.=.=.=.=.=.=.=.",
"=.=.=.=.=.=.=.=.=.=.=.=.=.=.=.=.=.=.=.=.&.@.+.J c +.+.+.=.=.=.=.=.=.=.=.=.=.=.=.=.=.=.=.=.=.=.=.",
"=.=.=.=.=.=.=.=.=.=.=.=.=.=.=.=.=.=.=.=.=.+.+.*.@.+.@.=.=.=.=.=.=.=.=.=.=.=.=.=.=.=.=.=.=.=.=.=.",
"=.=.=.=.=.=.=.=.=.=.=.=.=.=.=.=.=.=.=.=.=. .@.+.+.@.| =.=.=.=.=.=.=.=.=.=.=.=.=.=.=.=.=.=.=.=.=.",
"=.=.=.=.=.=.=.=.=.=.=.=.=.=.=.=.=.=.=.=.=.=.&.+.+.+.=.=.=.=.=.=.=.=.=.=.=.=.=.=.=.=.=.=.=.=.=.=.",
"=.=.=.=.=.=.=.=.=.=.=.=.=.=.=.=.=.=.=.=.=.=.K @.$...=.=.=.=.=.=.=.=.=.=.=.=.=.=.=.=.=.=.=.=.=.=.",
"=.=.=.=.=.=.=.=.=.=.=.=.=.=.=.=.=.=.=.=.=.=.=.+.+.=.=.=.=.=.=.=.=.=.=.=.=.=.=.=.=.=.=.=.=.=.=.=.",
"=.=.=.=.=.=.=.=.=.=.=.=.=.=.=.=.=.=.=.=.=.=.=.=.=.=.=.=.=.=.=.=.=.=.=.=.=.=.=.=.=.=.=.=.=.=.=.=.",
"=.=.=.=.=.=.=.=.=.=.=.=.=.=.=.=.=.=.=.=.=.=.=.=.=.=.=.=.=.=.=.=.=.=.=.=.=.=.=.=.=.=.=.=.=.=.=.=.",
"=.=.=.=.=.=.=.=.=.=.=.=.=.=.=.=.=.=.=.=.=.=.=.=.=.=.=.=.=.=.=.=.=.=.=.=.=.=.=.=.=.=.=.=.=.=.=.=.",
"=.=.=.=.=.=.=.=.=.=.=.=.=.=.=.=.=.=.=.=.=.=.=.=.=.=.=.=.=.=.=.=.=.=.=.=.=.=.=.=.=.=.=.=.=.=.=.=.",
"=.=.=.=.=.=.=.=.=.=.=.=.=.=.=.=.=.=.=.=.=.=.=.=.=.=.=.=.=.=.=.=.=.=.=.=.=.=.=.=.=.=.=.=.=.=.=.=.",
"=.=.=.=.=.=.=.=.=.=.=.=.=.=.=.=.=.=.=.=.=.=.=.=.=.=.=.=.=.=.=.=.=.=.=.=.=.=.=.=.=.=.=.=.=.=.=.=.",
"=.=.=.=.=.=.=.=.=.=.=.=.=.=.=.=.=.=.=.=.=.=.=.=.=.=.=.=.=.=.=.=.=.=.=.=.=.=.=.=.=.=.=.=.=.=.=.=."
};
