/* XPM */
static char *result[] = {
/* columns rows colors chars-per-pixel */
"32 32 67 1 ",
"  c #21B9D4",
". c #22B9D4",
"X c #23B9D4",
"o c #24B9D4",
"O c #25B9D4",
"+ c #25BAD4",
"@ c #26BAD4",
"# c #27BAD4",
"$ c #28BAD4",
"% c #29BAD4",
"& c #2ABAD4",
"* c #2BBAD4",
"= c #2ABBD4",
"- c #2BBBD4",
"; c #2CBBD4",
": c #2DBBD4",
"> c #2EBBD4",
", c #2FBBD4",
"< c #32BCD4",
"1 c #33BCD4",
"2 c #33BCD5",
"3 c #36BDD5",
"4 c #3DBED5",
"5 c #3FBED5",
"6 c #48BFD5",
"7 c #4BC0D5",
"8 c #4EC0D5",
"9 c #50C2D6",
"0 c #58C2D6",
"q c #5AC2D6",
"w c #5DC3D6",
"e c #5FC4D6",
"r c #5FC5D6",
"t c #60C3D6",
"y c #62C3D6",
"u c #62C4D6",
"i c #63C4D6",
"p c #64C4D6",
"a c #66C4D6",
"s c #67C4D6",
"d c #67C5D6",
"f c #68C5D6",
"g c #6AC5D6",
"h c #6BC6D6",
"j c #6CC7D6",
"k c #71C7D7",
"l c #76C8D7",
"z c #76C9D7",
"x c #7BCAD7",
"c c #7CCBD7",
"v c #79CAD8",
"b c #7ACAD8",
"n c #7CCAD8",
"m c #7CCBD8",
"M c #7DCBD8",
"N c #7ECBD8",
"B c #7FCBD8",
"V c #80CBD8",
"C c #82CBD8",
"Z c #84CBD8",
"A c #81CCD8",
"S c #84CCD8",
"D c #88CDD8",
"F c #89CDD8",
"G c #8ACDD8",
"H c #8ACED8",
"J c None",
/* pixels */
"JJJJJJJJJJJJJJJJJJJJJJJJJJJJJJJJ",
"JJJJJJJJJJJJJJJJJJJJJJJJJJJJJJJJ",
"JJJJJJJJJJJJJJJJJJJJJJJJJJJJJJJJ",
"J$$$$$$$$$#0apppppppukGDDDDDDDDJ",
"J$$$$$$$$@2ippppppppyzHDDDDDDDDJ",
"J$$$$$$$$O4sppppppppyzHDDDDDDDDJ",
"JJ$$$JJJJJJJJJJJJJJJJJJJJJJDDDJJ",
"JJ$$$JJJJJJJJJJJJJJJJJJJJJJDDDJJ",
"JJJ$$JJJJJJJJJJJJJJJJJJJJJJDDJJJ",
"JJJJ$$JJJJJJJJJJJJJJJJJJJJDDDJJJ",
"JJJJ$$$JJJJJJJJJJJJJJJJJJFDDJJJJ",
"JJJJJ$$JJJJJJJJJJJJJJJJJJNDGJJJJ",
"JJJJJX##JJJJJJJJJJJJJJJJtufJJJJJ",
"JJJJJJ%.JJJJJJJJJJJJJJJJggJJJJJJ",
"rcvbnS9 3vVVVVVAAAVVVBNNcxMmbvxj",
"J&&*-;:$@*>>>>>,,>>>:---=;;--&=$",
"JJJJJJJJJJJJJJJJJJJJJJJJJJJJJJJJ",
"JJJJJJJJ$$$JJJJJJJJJJdssJJJJJJJJ",
"JJJJJJJJJ$$JJJJJJJJJJdaJJJJJJJJJ",
"JJJJJJJJJ$$$JJJJJJJJ58qJJJJJJJJJ",
"JJJJJJJJJJ$$$JJJJJJJOOJJJJJJJJJJ",
"JJJJJJJJJJJ@#JJJJJJ#@+JJJJJJJJJJ",
"JJJJJJJJJJJ<%oJJJJo#1JJJJJJJJJJJ",
"JJJJJJJJJJJJe7JJJJ6whJJJJJJJJJJJ",
"JJJJJJJJJJJJDZlJJxCFJJJJJJJJJJJJ",
"JJJJJJJJJJJJJFHGDGGJJJJJJJJJJJJJ",
"JJJJJJJJJJJJJJDDDDDJJJJJJJJJJJJJ",
"JJJJJJJJJJJJJJDDDDJJJJJJJJJJJJJJ",
"JJJJJJJJJJJJJJJDDDJJJJJJJJJJJJJJ",
"JJJJJJJJJJJJJJJDDJJJJJJJJJJJJJJJ",
"JJJJJJJJJJJJJJJJJJJJJJJJJJJJJJJJ",
"JJJJJJJJJJJJJJJJJJJJJJJJJJJJJJJJ"
};
