/* XPM */
static char *result[] = {
/* columns rows colors chars-per-pixel */
"16 16 81 1 ",
"  c #584B4C",
". c #5B4D4E",
"X c #5D4E4F",
"o c #5A5152",
"O c #5B5153",
"+ c #5B5253",
"@ c #595254",
"# c #5A5254",
"$ c #59585A",
"% c #585B5E",
"& c #565F63",
"* c #566266",
"= c #5A676A",
"- c #5E6568",
"; c #59686C",
": c #5A686C",
"> c #5C686C",
", c #546C71",
"< c #5C6C70",
"1 c #4F747A",
"2 c #4F767C",
"3 c #4F767D",
"4 c #62767A",
"5 c #4E7A81",
"6 c #3597A3",
"7 c #3C9DAB",
"8 c #18A8BA",
"9 c #3BA0AE",
"0 c #2FAFBF",
"q c #3BA6B4",
"w c #35A9B9",
"e c #498D96",
"r c #43919C",
"t c #52929B",
"y c #6C9197",
"u c #4294A0",
"i c #4096A2",
"p c #4197A2",
"a c #4595A0",
"s c #429EAA",
"d c #5B9DA5",
"f c #4CA4AF",
"g c #5DA2AB",
"h c #5CA6AF",
"j c #5DA7B0",
"k c #5EA7B0",
"l c #59AAB4",
"z c #1CBED2",
"x c #1FBED3",
"c c #2DB2C3",
"v c #22BBD2",
"b c #21BED3",
"n c #23BFD5",
"m c #31BFD2",
"M c #4AB9C5",
"N c #4DBDCB",
"B c #5BB5C0",
"V c #0FC1D2",
"C c #22C3D8",
"Z c #5EC8CE",
"A c #48C6D5",
"S c #51C5D3",
"D c #54C4D2",
"F c #56C4D2",
"G c #57C4D2",
"H c #55CBD9",
"J c #56CBD8",
"K c #67C7D3",
"L c #63CAD7",
"P c #65CAD5",
"I c #65CBD7",
"U c #66CDD4",
"Y c #66CED5",
"T c #73CAD3",
"R c #74C9D2",
"E c #77CAD3",
"W c #75CBD4",
"Q c #77CBD4",
"! c #78CDD6",
"~ c #6CD0D8",
"^ c None",
/* pixels */
"^^^^^^^^^^^^^^^^",
"^^^^^^^^^^^^^^^^",
"^^^^^^^^^^^^^^^^",
"^8CbxmGFFDKEW!~^",
"^^n9i,=::;>-4Q^^",
"^^Vwe$o###@ yZ^^",
"^^^z7*X++O.<P^^^",
"^^IANlgkjhdBHL^^",
"^^^^6qa321ts^^^^",
"^^^^^vp5%&M^^^^^",
"^^^^^^cur0^^^^^^",
"^^^^^^SffJ^^^^^^",
"^^^^^^^TR^^^^^^^",
"^^^^^^^YU^^^^^^^",
"^^^^^^^^^^^^^^^^",
"^^^^^^^^^^^^^^^^"
};
