/* XPM */
static char *result[] = {
/* columns rows colors chars-per-pixel */
"32 32 215 2 ",
"   c #594B4C",
".  c #5C4C4D",
"X  c #5C4E4F",
"o  c #584E50",
"O  c #584F51",
"+  c #5A4F50",
"@  c #595153",
"#  c #595253",
"$  c #5C5052",
"%  c #5C5152",
"&  c #5D5253",
"*  c #595254",
"=  c #5A5254",
"-  c #5B5254",
";  c #5B5354",
":  c #5B5355",
">  c #5A5557",
",  c #5A5658",
"<  c #525B5F",
"1  c #525C60",
"2  c #4E6C6F",
"3  c #516064",
"4  c #506065",
"5  c #516065",
"6  c #536064",
"7  c #566267",
"8  c #56676B",
"9  c #52696E",
"0  c #536A6F",
"q  c #596B6F",
"w  c #5A6B6F",
"e  c #5F6A6D",
"r  c #5C6B6F",
"t  c #5F6C6F",
"y  c #466570",
"u  c #4C6F75",
"i  c #536E73",
"p  c #507278",
"a  c #616B6E",
"s  c #607174",
"d  c #457981",
"f  c #4E7A81",
"g  c #4B7C83",
"h  c #527D84",
"j  c #587F86",
"k  c #3D94A0",
"l  c #3E96A2",
"z  c #3F9BA7",
"x  c #3E9CA8",
"c  c #3D9DAA",
"v  c #3D9FAC",
"b  c #3C9FAD",
"n  c #34A3B1",
"m  c #36A5B5",
"M  c #33A9B9",
"N  c #46838C",
"B  c #4B8189",
"V  c #4A858E",
"C  c #51838A",
"Z  c #498790",
"A  c #468F99",
"S  c #43909A",
"D  c #46919B",
"F  c #43929E",
"G  c #43939E",
"H  c #44919C",
"J  c #44929C",
"K  c #45929C",
"L  c #46929C",
"P  c #46939D",
"I  c #44939E",
"U  c #45939E",
"Y  c #44949F",
"T  c #45949F",
"R  c #44959F",
"E  c #699499",
"W  c #4396A2",
"Q  c #4397A3",
"!  c #4495A0",
"~  c #4496A1",
"^  c #4398A3",
"/  c #4198A4",
"(  c #5AAAB4",
")  c #6FA6AC",
"_  c #63ABB4",
"`  c #6FAAB1",
"'  c #71AAB0",
"]  c #70ACB3",
"[  c #71AEB4",
"{  c #71AFB6",
"}  c #6CB3BB",
"|  c #72B0B7",
" . c #1AB7CE",
".. c #19BBCF",
"X. c #1DBBD0",
"o. c #1FBFD4",
"O. c #18BDD9",
"+. c #2CAFC0",
"@. c #2AB2C4",
"#. c #2BB2C4",
"$. c #2BB3C5",
"%. c #27B7CA",
"&. c #27B8CB",
"*. c #26B9CC",
"=. c #29B9CD",
"-. c #2AB9CD",
";. c #3FB7C7",
":. c #3EBBCC",
">. c #23BED3",
",. c #24BCD0",
"<. c #20BFD4",
"1. c #21BFD4",
"2. c #20BFD5",
"3. c #22BFD4",
"4. c #23BFD4",
"5. c #39BFD0",
"6. c #3EBFD0",
"7. c #43B7C6",
"8. c #40BAC9",
"9. c #49B9CC",
"0. c #5BBFCC",
"q. c #65BAC4",
"w. c #65BBC4",
"e. c #67BDC7",
"r. c #72BDC5",
"t. c #72BEC6",
"y. c #15C4D4",
"u. c #1EC0D5",
"i. c #1CC1D7",
"p. c #1EC2D7",
"a. c #1FC3D7",
"s. c #1EC6DA",
"d. c #20C0D5",
"f. c #21C0D5",
"g. c #22C2D5",
"h. c #21C1D7",
"j. c #21C2D6",
"k. c #21C2D7",
"l. c #27C1D5",
"z. c #2FC3D6",
"x. c #21C1D8",
"c. c #20C2D8",
"v. c #21C4DA",
"b. c #36C1D3",
"n. c #33C2D5",
"m. c #33C3D5",
"M. c #31C3D6",
"N. c #34C2D5",
"B. c #34C3D5",
"V. c #36C3D4",
"C. c #37C3D4",
"Z. c #33C4D5",
"A. c #3CC0D0",
"S. c #3FC2D3",
"D. c #3DC4D5",
"F. c #3EC4D5",
"G. c #3EC5D6",
"H. c #39C2D8",
"J. c #5AC0CD",
"K. c #40C1D1",
"L. c #41C2D3",
"P. c #40C3D3",
"I. c #49C7D7",
"U. c #53C7D6",
"Y. c #54C6D4",
"T. c #56C6D4",
"R. c #5DC7D3",
"E. c #59C6D4",
"W. c #54C8D6",
"Q. c #56C8D6",
"!. c #57C8D6",
"~. c #56CAD7",
"^. c #56CCDB",
"/. c #59CFDD",
"(. c #51D0DE",
"). c #6DC5CF",
"_. c #63CAD6",
"`. c #66C9D5",
"'. c #62CCD6",
"]. c #6DC8D1",
"[. c #6BCBD5",
"{. c #6CCED4",
"}. c #6CCCD7",
"|. c #6CCFD7",
" X c #6CCED9",
".X c #6ECED8",
"XX c #73CBD4",
"oX c #75CAD5",
"OX c #76CBD4",
"+X c #70CCD4",
"@X c #72CED6",
"#X c #76CCD5",
"$X c #75CCD6",
"%X c #76CCD6",
"&X c #76CDD6",
"*X c #76CDD7",
"=X c #76CED7",
"-X c #79C9D3",
";X c #78CCD5",
":X c #79CCD5",
">X c #78CDD6",
",X c #7BCDD7",
"<X c #78CED7",
"1X c #7ACED7",
"2X c #76CFD8",
"3X c #77CFD8",
"4X c #77CEDA",
"5X c #7ACFD9",
"6X c #6BD0D7",
"7X c #77D3DC",
"8X c #79D0D9",
"9X c #7AD0D9",
"0X c #78D1DA",
"qX c #7AD5DE",
"wX c None",
/* pixels */
"wXwXwXwXwXwXwXwXwXwXwXwXwXwXwXwXwXwXwXwXwXwXwXwXwXwXwXwXwXwXwXwX",
"wXwXwXwXwXwXwXwXwXwXwXwXwXwXwXwXwXwXwXwXwXwXwXwXwXwXwXwXwXwXwXwX",
"wXwXwXwXwXwXwXwXwXwXwXwXwXwXwXwXwXwXwXwXwXwXwXwXwXwXwXwXwXwXwXwX",
"wXwXwXwXwXwXwXwXwXwXwXwXwXwXwXwXwXwXwXwXwXwXwXwXwXwXwXwXwXwXwXwX",
"wXwXwXwXwXwXwXwXwXwXwXwXwXwXwXwXwXwXwXwXwXwXwXwXwXwXwXwXwXwXwXwX",
"wXwXwXwXwXwXwXwXwXwXwXwXwXwXwXwXwXwXwXwXwXwXwXwXwXwXwXwXwXwXwXwX",
"wXwXwXwXv.<.<.<.2.<.u.l.U.!.Q.Q.Q.Q.Q.W._.<X=X=X*X$X%X#XwXwXwXwX",
"wXwXwXwX4.1.f.f.3.1.o.b.E.T.T.T.T.T.T.Y.`.;X#X#X3X2X&X1XwXwXwXwX",
"wXwXwXwX .h.*.c x v N 8 w w w w w w w q r t t e s t.8X6XwXwXwXwX",
"wXwXwXwXwXd.&.I L ~ i X = = = = = = = = = * * O , r.0XwXwXwXwXwX",
"wXwXwXwXwXy.x.M D ^ p - , , , , , , , , , , , o E qXwXwXwXwXwXwX",
"wXwXwXwXwXwXX.>.z ~ f - , , , , , , , , , , @ a >X].wXwXwXwXwXwX",
"wXwXwXwXwXwXwXc.#.! Z > > , , , , , , , , > * _ 7XwXwXwXwXwXwXwX",
"wXwXwXwXwXwXwX..i.n S 6 + # * * * * # @ @   j ^.I.wXwXwXwXwXwXwX",
"wXwXwXwX4X:X-X'.~.R.e.} ' [ { | | { [ ] ` ) ). X[.oX#X4XwXwXwXwX",
"wXwXwX=.m.n.B.C.A.7.8.D.G.K.L.L.L.L.P.S.6.:.;.5.V.N.n.Z.-.wXwXwX",
"wXwXwXwXwXwXwXwXwXy d k l u < 5 4 5 3 1 9 h 2 wXwXwXwXwXwXwXwXwX",
"wXwXwXwXwXwXwXwXwXwXg.$.T A 0 $ % : ; & ( /.wXwXwXwXwXwXwXwXwXwX",
"wXwXwXwXwXwXwXwXwXwXO.k.m P W B 7 > . C (.9.wXwXwXwXwXwXwXwXwXwX",
"wXwXwXwXwXwXwXwXwXwXwXa.,./ U Q Y V g %.j.wXwXwXwXwXwXwXwXwXwXwX",
"wXwXwXwXwXwXwXwXwXwXwXwXp.+.K Y R Y @.s.wXwXwXwXwXwXwXwXwXwXwXwX",
"wXwXwXwXwXwXwXwXwXwXwXwXH.z.b H J v M.F.wXwXwXwXwXwXwXwXwXwXwXwX",
"wXwXwXwXwXwXwXwXwXwXwXwXwX}.J.G F 0..XwXwXwXwXwXwXwXwXwXwXwXwXwX",
"wXwXwXwXwXwXwXwXwXwXwXwXwX{.5Xw.q.9X@XwXwXwXwXwXwXwXwXwXwXwXwXwX",
"wXwXwXwXwXwXwXwXwXwXwXwXwXwXOX8X8XXXwXwXwXwXwXwXwXwXwXwXwXwXwXwX",
"wXwXwXwXwXwXwXwXwXwXwXwXwXwXwX:X,XwXwXwXwXwXwXwXwXwXwXwXwXwXwXwX",
"wXwXwXwXwXwXwXwXwXwXwXwXwXwXwX+X|.wXwXwXwXwXwXwXwXwXwXwXwXwXwXwX",
"wXwXwXwXwXwXwXwXwXwXwXwXwXwXwXwXwXwXwXwXwXwXwXwXwXwXwXwXwXwXwXwX",
"wXwXwXwXwXwXwXwXwXwXwXwXwXwXwXwXwXwXwXwXwXwXwXwXwXwXwXwXwXwXwXwX",
"wXwXwXwXwXwXwXwXwXwXwXwXwXwXwXwXwXwXwXwXwXwXwXwXwXwXwXwXwXwXwXwX",
"wXwXwXwXwXwXwXwXwXwXwXwXwXwXwXwXwXwXwXwXwXwXwXwXwXwXwXwXwXwXwXwX",
"wXwXwXwXwXwXwXwXwXwXwXwXwXwXwXwXwXwXwXwXwXwXwXwXwXwXwXwXwXwXwXwX"
};
