/* XPM */
static char *result[] = {
/* columns rows colors chars-per-pixel */
"16 16 37 1 ",
"  c #23B9D4",
". c #24B9D4",
"X c #25BAD4",
"o c #26BAD4",
"O c #27BAD4",
"+ c #28BAD4",
"@ c #2BBBD4",
"# c #37BCD4",
"$ c #36BDD5",
"% c #40BED5",
"& c #42BFD5",
"* c #4FC1D5",
"= c #55C2D6",
"- c #64C4D6",
"; c #65C4D6",
": c #67C5D6",
"> c #64C6D6",
", c #65C6D6",
"< c #65C6D7",
"1 c #67C6D7",
"2 c #68C5D6",
"3 c #6BC7D7",
"4 c #6DC8D7",
"5 c #70C8D7",
"6 c #71C9D7",
"7 c #72C9D7",
"8 c #75C9D7",
"9 c #77CAD7",
"0 c #79CAD7",
"q c #7CCAD7",
"w c #7FCBD7",
"e c #80CBD8",
"r c #81CCD8",
"t c #88CDD8",
"y c #89CDD8",
"u c #8ACDD8",
"i c None",
/* pixels */
"iiiiiiiiiiiiiiii",
"iiiiiiiiiiiiiiii",
"ii+++O=:---ryttt",
"ii++iiiiiiiiitti",
"ii+iiiiiiiiiiiti",
"iiiXiiiiiiiiiyii",
"iii$ iiiiiii2qii",
"i,0<@>9888751364",
"iiiiioiiiii*iiii",
"iiiii+iiiii;iiii",
"iiiiii.iiiXiiiii",
"iiiiii%#ii&iiiii",
"iiiiiiiwieiiiiii",
"iiiiiiiuuuiiiiii",
"iiiiiiiitiiiiiii",
"iiiiiiiiiiiiiiii"
};
